# xmcd
#
# Track frame offsets: 
#        150
#        16257
#        33621
#        50440
#        70416
#        87683
#        107286
#        126515
#        146114
#        162191
#        176817
#        191584
#        212893
#        229975
#
# Disc length: 3317 seconds
#
# Revision: 1
# Processed by: cddbd v1.5.2PL0 Copyright (c) Steve Scherf et al.
# Submitted via: ExactAudioCopy v1.5
#
DISCID=d20cf30e
DTITLE=Young Buck - Straight Outta Ca$hville
DYEAR=2004
DGENRE=Rap
TTITLE0=I'm A Soldier feat. 50 Cent
TTITLE1=Do It Like Me
TTITLE2=Let Me In feat. 50 Cent
TTITLE3=Look At Me Now feat. Mr. Porter
TTITLE4=Welcome To The South feat. Lil' Flip and David Banner
TTITLE5=Prices On My Head feat. Lloyd Banks and D-Tay
TTITLE6=Bonafide Hustler feat. 50 Cent and Tony Yayo
TTITLE7=Shorty Wanna Ride
TTITLE8=Bang Bang
TTITLE9=Thou Shall
TTITLE10=Black Gloves
TTITLE11=Stomp feat. The Game and Ludacris
TTITLE12=Taking Hits feat. D-Tay
TTITLE13=Walk With Me feat. Stat Quo
EXTD=
EXTT0=
EXTT1=
EXTT2=
EXTT3=
EXTT4=
EXTT5=
EXTT6=
EXTT7=
EXTT8=
EXTT9=
EXTT10=
EXTT11=
EXTT12=
EXTT13=
PLAYORDER=
